<svg width="400" height="140" viewBox="0 0 400 140" fill="#FFFFFF"
  xmlns="http://www.w3.org/2000/svg">
  <path d="M389.184 76V48H371.17V76H360V92H371.17V138H389.184V92H400V76H389.184Z" />
  <path d="M352.502 91.921C348.365 92.4134 338.766 92.8648 333.119 100.579V138H314.502V76.4519H333.119V81.068C337.36 77.4367 343.752 75.3441 352.502 76.1852V91.921Z" />
  <path d="M304 77.5842V138.456H285.884V135.007C280.658 138.326 274.584 140.06 268.396 139.998C251.577 139.998 238 125.693 238 108.061C238 90.4282 251.536 76.0016 268.396 76.0016C274.584 75.9403 280.658 77.6739 285.884 80.9931V77.5437L304 77.5842ZM285.965 117.476V98.8083C284.345 96.5183 282.167 94.6807 279.638 93.4698C277.11 92.2589 274.314 91.7148 271.517 91.8892C267.217 91.8892 263.094 93.5994 260.054 96.6435C257.013 99.6877 255.306 103.817 255.306 108.122C255.306 112.427 257.013 116.556 260.054 119.6C263.094 122.644 267.217 124.354 271.517 124.354C274.31 124.531 277.103 123.992 279.631 122.789C282.159 121.585 284.339 119.757 285.965 117.476Z" />
  <path d="M230 138V105.126C230 86.281 219.049 75.9614 203.033 76.0017C197.352 75.9305 191.869 78.1009 187.758 82.0483C186.767 82.9756 185.35 84.562 183.756 86.4533C179.048 79.5973 171.345 76.0025 161.872 76.0622C159.268 76.0209 156.686 76.5389 154.297 77.5816C151.908 78.6242 149.768 80.1676 148.018 82.1088V77.5335H130V138H148.018V99.886C148.986 97.7097 150.524 95.8396 152.468 94.4762C154.411 93.1128 156.686 92.3073 159.049 92.1463C167.376 92.1463 170.908 96.9005 171.201 105.968V138L171.221 138L189.219 138V99.886C190.182 97.7057 191.719 95.8321 193.663 94.4679C195.607 93.1037 197.885 92.3008 200.25 92.1463C208.939 92.1463 212.422 97.3464 212.422 107.243V138H230Z" />
  <path d="M245 10.9468C294.021 10.9468 338.33 22.8482 370.1 42H390C385.083 38.3207 379.958 34.9302 374.651 31.8453C339.847 11.3124 293.758 0 245 0C196.242 0 150.153 11.3124 115.329 31.8453C110.031 34.9349 104.913 38.3253 100 42H119.9C151.67 22.8482 195.979 10.9468 245 10.9468Z" />
  <path d="M120 137.98H101.18L88.9578 92.5984L62.6914 137.98H41.6863L82.3002 67.7255L75.7639 43.3376L21.0051 138H0L69.3895 18H87.7842L95.8381 47.8232H114.82L101.848 70.3118L120 137.98Z" />
</svg>
